<svg width="36" height="36" viewBox="0 0 36 36" fill="none" xmlns="http://www.w3.org/2000/svg">
<path d="M35.38 21.62C35.21 22.28 34.77 22.76 34.29 23.23C30.81 26.69 27.34 30.16 23.88 33.65C23.43 34.11 22.94 34.34 22.33 34.45C20.92 34.7 19.53 35 18.13 35.28C18.1 35.29 18.08 35.32 18.05 35.34C17.87 35.34 17.69 35.34 17.5 35.34C17.07 35.07 16.97 34.71 17.08 34.21C17.43 32.62 17.72 31.01 18.06 29.41C18.1 29.22 18.21 29.02 18.34 28.89C22.08 25.14 25.82 21.4 29.57 17.66C30.47 16.76 31.77 16.75 32.69 17.63C33.39 18.31 34.1 18.99 34.75 19.71C35.03 20.02 35.18 20.44 35.39 20.81C35.38 21.07 35.38 21.35 35.38 21.62ZM18.7 33.63C18.81 33.63 18.86 33.64 18.92 33.63C20.08 33.4 21.23 33.17 22.39 32.93C22.5 32.91 22.62 32.82 22.7 32.74C26.34 29.11 29.97 25.47 33.6 21.84C34.01 21.43 34.01 21.04 33.61 20.63C33.02 20.03 32.42 19.44 31.83 18.84C31.3 18.31 30.98 18.31 30.45 18.84C26.99 22.3 23.54 25.76 20.07 29.2C19.66 29.61 19.38 30.03 19.29 30.61C19.13 31.61 18.91 32.6 18.7 33.63Z" fill="#6C75B7"/>
<path d="M19.35 6.23001C19.35 6.57001 19.37 6.87 19.35 7.16C19.26 8.27 18.33 9.13 17.21 9.13C14.3 9.14001 11.39 9.13 8.48 9.13C7.24 9.13 6.28 8.19 6.26 6.94C6.26 6.72 6.26 6.48999 6.26 6.26999C5.36 6.26999 4.49 6.20001 3.64 6.29001C2.73 6.38001 2.02 7.24 1.93 8.16C1.92 8.32 1.91 8.48001 1.91 8.64001C1.91 14.79 1.91 20.94 1.91 27.09C1.91 28.21 2.37 29 3.29 29.33C3.62 29.45 4 29.49 4.36 29.49C7.55 29.5 10.75 29.5 13.94 29.5C14.09 29.5 14.24 29.5 14.38 29.52C14.77 29.58 15.02 29.89 14.99 30.29C14.96 30.66 14.68 30.94 14.3 30.96C14.22 30.96 14.14 30.96 14.06 30.96C10.77 30.96 7.49 30.96 4.2 30.96C2.01 30.96 0.440002 29.39 0.440002 27.21C0.440002 20.98 0.440002 14.75 0.440002 8.51999C0.440002 6.32999 2.01 4.76999 4.2 4.76999C4.87 4.76999 5.54001 4.76999 6.24001 4.76999C6.24001 4.54999 6.24001 4.36001 6.24001 4.17001C6.25001 3.59001 6.52 3.32 7.1 3.31C7.71 3.3 8.33 3.3 8.94 3.31C9.14 3.31 9.24 3.26 9.3 3.06C9.79 1.44 11.17 0.399994 12.81 0.399994C14.44 0.399994 15.83 1.45001 16.3 3.04001C16.36 3.25001 16.44 3.31 16.65 3.31C17.23 3.3 17.81 3.31 18.39 3.31C19.12 3.31 19.35 3.55001 19.36 4.26001C19.36 4.42001 19.36 4.56999 19.36 4.76999C20.1 4.76999 20.8 4.76999 21.5 4.76999C23.25 4.77999 24.67 5.89 25.08 7.59C25.15 7.87 25.18 8.17 25.18 8.47C25.19 11.31 25.19 14.15 25.18 17C25.18 17.45 25.01 17.72 24.67 17.84C24.24 17.99 23.79 17.7 23.71 17.23C23.69 17.11 23.7 16.98 23.7 16.86C23.7 14.11 23.67 11.36 23.71 8.60999C23.73 7.39999 22.87 6.18999 21.35 6.23999C20.72 6.24999 20.08 6.23001 19.35 6.23001ZM7.73 4.76999C7.73 5.40999 7.76 6 7.72001 6.59C7.67 7.56 8.11001 7.68999 8.83001 7.67999C10.85 7.65999 12.88 7.67001 14.9 7.67001C15.63 7.67001 16.36 7.68001 17.08 7.67001C17.62 7.66001 17.89 7.38 17.9 6.84C17.91 6.54 17.9 6.25001 17.9 5.95001C17.9 5.56001 17.9 5.17001 17.9 4.76001C17.19 4.76001 16.53 4.76001 15.87 4.76001C15.26 4.76001 15 4.50999 14.97 3.89999C14.9 2.53999 13.56 1.56999 12.25 1.92999C11.33 2.17999 10.75 2.89 10.65 3.87C10.58 4.56 10.37 4.76001 9.71 4.76001C9.07 4.77001 8.42 4.76999 7.73 4.76999Z" fill="#6C75B7"/>
<path d="M12.83 13.5C10.43 13.5 8.02999 13.5 5.62999 13.5C5.10999 13.5 4.77999 13.18 4.80999 12.72C4.82999 12.4 5.05999 12.13 5.36999 12.07C5.50999 12.04 5.65999 12.04 5.80999 12.04C10.48 12.04 15.16 12.04 19.83 12.04C19.93 12.04 20.04 12.04 20.14 12.05C20.55 12.09 20.85 12.42 20.83 12.8C20.81 13.19 20.5 13.49 20.09 13.5C19.86 13.51 19.64 13.5 19.41 13.5C17.21 13.5 15.02 13.5 12.83 13.5Z" fill="#6C75B7"/>
<path d="M12.8 17.87C10.41 17.87 8.01999 17.87 5.63999 17.87C5.15999 17.87 4.83999 17.61 4.80999 17.2C4.77999 16.81 5.02999 16.49 5.41999 16.43C5.51999 16.41 5.61999 16.41 5.72999 16.41C10.45 16.41 15.17 16.41 19.88 16.41C19.99 16.41 20.11 16.41 20.22 16.43C20.57 16.49 20.83 16.81 20.82 17.15C20.81 17.51 20.52 17.82 20.16 17.86C20.06 17.87 19.96 17.86 19.85 17.86C17.51 17.87 15.16 17.87 12.8 17.87Z" fill="#6C75B7"/>
<path d="M12.83 22.23C10.43 22.23 8.02999 22.23 5.62999 22.23C5.10999 22.23 4.77999 21.91 4.80999 21.45C4.82999 21.13 5.05999 20.86 5.36999 20.8C5.50999 20.77 5.65999 20.77 5.80999 20.77C10.48 20.77 15.16 20.77 19.83 20.77C19.95 20.77 20.08 20.77 20.2 20.79C20.57 20.85 20.84 21.17 20.83 21.53C20.81 21.91 20.51 22.21 20.13 22.23C19.89 22.24 19.65 22.23 19.41 22.23C17.22 22.23 15.02 22.23 12.83 22.23Z" fill="#6C75B7"/>
</svg>
