<svg width="35" height="36" viewBox="0 0 35 36" fill="none" xmlns="http://www.w3.org/2000/svg">
<path d="M22.02 24.03C21.4 23.41 20.82 22.83 20.21 22.23C17.14 24.77 13.61 25.74 9.66003 24.91C6.64003 24.28 4.21002 22.66 2.39002 20.16C-1.28998 15.09 -0.519974 8.04999 4.13003 3.95999C8.87003 -0.220015 15.83 -0.170009 20.46 4.05999C25.1 8.30999 25.93 15.74 21.45 20.99C22.04 21.58 22.63 22.16 23.26 22.79C23.57 22.47 23.9 22.1 24.25 21.76C24.7 21.31 25.12 21.31 25.57 21.76C28.38 24.56 31.19 27.36 33.98 30.17C35.28 31.48 35.27 33.51 34 34.78C32.72 36.06 30.69 36.06 29.37 34.74C26.57 31.95 23.78 29.15 20.98 26.36C20.53 25.91 20.53 25.49 20.97 25.04C21.32 24.69 21.68 24.36 22.02 24.03ZM1.71002 13.03C1.71002 18.84 6.43003 23.57 12.23 23.58C18.02 23.58 22.77 18.83 22.78 13.04C22.78 7.24 18.05 2.51 12.24 2.51C6.42003 2.5 1.71002 7.19999 1.71002 13.03ZM22.67 25.73C22.72 25.78 22.78 25.85 22.84 25.91C25.37 28.45 27.91 30.98 30.45 33.52C30.54 33.61 30.63 33.7 30.73 33.77C31.61 34.43 32.88 34.04 33.22 33.01C33.45 32.31 33.23 31.73 32.72 31.22C30.2 28.71 27.68 26.19 25.16 23.67C25.08 23.59 25 23.52 24.93 23.46C24.18 24.22 23.44 24.96 22.67 25.73Z" fill="#6C75B7"/>
<path d="M12.55 4.10999C14.64 4.14999 16.71 4.97 18.45 6.62C18.72 6.88 18.85 7.17001 18.74 7.54001C18.64 7.86001 18.4 8.09999 18.08 8.07999C17.81 8.05999 17.48 7.94 17.28 7.75C16.24 6.79 15.04 6.13 13.65 5.88C11.34 5.46 9.26002 5.98999 7.45002 7.51999C7.32002 7.62999 7.21002 7.75001 7.08002 7.85001C6.68002 8.20001 6.21002 8.19001 5.89002 7.85001C5.56002 7.50001 5.56001 7.01001 5.96001 6.67001C6.62001 6.13001 7.30002 5.57999 8.04002 5.14999C9.34002 4.41999 10.76 4.10999 12.55 4.10999Z" fill="#6C75B7"/>
</svg>
