<svg width="34" height="33" viewBox="0 0 34 33" fill="none" xmlns="http://www.w3.org/2000/svg">
<path d="M33.38 15.95C33.21 16.34 32.9 16.47 32.48 16.47C27.59 16.46 22.7 16.46 17.82 16.46C17.14 16.46 16.91 16.23 16.91 15.56C16.91 10.67 16.91 5.78999 16.9 0.899994C16.9 0.479994 17.03 0.17 17.42 0C17.83 0 18.24 0 18.64 0C19.04 0.05 19.44 0.100004 19.84 0.160004C22.66 0.580004 25.2 1.65999 27.42 3.45999C30.47 5.92999 32.39 9.1 33.11 12.97C33.22 13.56 33.28 14.15 33.37 14.74C33.38 15.14 33.38 15.55 33.38 15.95ZM31.98 15.07C31.73 11.33 30.32 8.12999 27.66 5.51999C25.07 2.97999 21.94 1.63001 18.31 1.39001C18.31 5.99001 18.31 10.52 18.31 15.07C22.87 15.07 27.4 15.07 31.98 15.07Z" fill="#6C75B7"/>
<path d="M33.38 19.56C33.29 20.16 33.23 20.77 33.12 21.36C32.49 24.75 30.91 27.63 28.42 30.02C28.04 30.39 27.62 30.34 27.26 29.9C26.12 28.49 24.98 27.09 23.84 25.68C22.08 23.5 20.31 21.31 18.55 19.13C18.34 18.87 18.18 18.6 18.34 18.25C18.51 17.9 18.82 17.84 19.18 17.84C23.6 17.84 28.01 17.84 32.43 17.84C32.85 17.84 33.18 17.95 33.38 18.35C33.38 18.74 33.38 19.15 33.38 19.56ZM27.94 28.54C30.41 25.91 31.74 22.83 31.97 19.26C28.11 19.26 24.3 19.26 20.44 19.26C22.96 22.37 25.44 25.44 27.94 28.54Z" fill="#6C75B7"/>
<path d="M15.54 9.48998C15.54 11.84 15.54 14.18 15.53 16.53C15.53 16.8 15.59 17.01 15.76 17.23C18.79 21.11 21.8 24.99 24.82 28.87C25.27 29.45 25.23 29.75 24.65 30.21C23.62 31.02 22.53 31.73 21.29 32.19C20.32 32.55 19.32 32.75 18.29 32.84C16.54 33 14.79 33.01 13.08 32.61C6.92002 31.18 2.83002 27.45 1.02002 21.4C-0.709981 15.61 1.15002 9.19 5.56002 5.07C7.79002 2.99 10.43 1.77 13.47 1.42C13.85 1.38 14.24 1.36 14.63 1.35C15.25 1.33 15.54 1.60998 15.54 2.23998C15.54 4.66998 15.54 7.07998 15.54 9.48998ZM23.47 29.38C23.4 29.29 23.35 29.22 23.3 29.15C20.36 25.37 17.42 21.59 14.47 17.81C14.24 17.52 14.13 17.21 14.13 16.84C14.14 12.28 14.13 7.73 14.13 3.17C14.13 3.04 14.13 2.89999 14.13 2.71999C13.44 2.82999 12.8 2.89998 12.18 3.04998C8.99002 3.80998 6.47002 5.6 4.60002 8.26C2.20002 11.68 1.29002 15.5 2.04002 19.6C3.02002 24.99 6.20002 28.67 11.29 30.67C13.75 31.64 16.32 31.71 18.92 31.37C20.62 31.16 22.12 30.46 23.47 29.38Z" fill="#6C75B7"/>
</svg>
