<svg width="33" height="32" viewBox="0 0 33 32" fill="none" xmlns="http://www.w3.org/2000/svg">
<path d="M5.44 32C5.05 31.84 4.62 31.74 4.27 31.52C3.37 30.96 2.89 30.11 2.88 29.05C2.87 25.05 2.88 21.05 2.88 17.05C2.88 16.44 3.3 16 3.88 16C4.46 16 4.88 16.43 4.88 17.04C4.88 20.95 4.88 24.85 4.88 28.76C4.88 29.63 5.25 30 6.11 30C7.58 30 9.05 30 10.52 30C10.63 30 10.74 30 10.89 30C10.89 29.85 10.89 29.73 10.89 29.6C10.89 26.11 10.89 22.62 10.89 19.13C10.89 17.27 12.16 15.99 14.02 15.99C15.95 15.99 17.87 15.99 19.8 15.99C21.59 15.99 22.88 17.28 22.88 19.08C22.88 22.58 22.88 26.08 22.88 29.58C22.88 29.7 22.88 29.83 22.88 29.97C23 29.99 23.1 30 23.2 30C24.7 30 26.2 30 27.7 30C28.48 30 28.88 29.61 28.88 28.83C28.88 23.25 28.88 17.66 28.89 12.08C28.89 11.87 28.82 11.74 28.66 11.61C24.99 8.56 21.33 5.51 17.67 2.45C17.08 1.96 16.68 1.97001 16.09 2.46001C11.66 6.15001 7.23 9.85 2.79 13.53C2.56 13.72 2.28001 13.91 1.99001 13.97C1.46001 14.08 1.14 13.72 0.880005 13.3C0.880005 13.11 0.880005 12.92 0.880005 12.74C1.04 12.53 1.17 12.28 1.37 12.11C5.87 8.35 10.37 4.60001 14.88 0.85001C16.11 -0.16999 17.65 -0.18 18.88 0.84C20.79 2.42 22.69 4.01001 24.59 5.60001C24.84 5.81001 25.09 6.01 25.39 6.25C25.39 5.63 25.39 5.08 25.39 4.53C25.39 3.92 25.81 3.49001 26.39 3.49001C26.97 3.49001 27.38 3.93 27.38 4.54C27.38 5.56 27.39 6.58001 27.38 7.60001C27.38 7.83001 27.44 7.98001 27.62 8.13001C29.17 9.41001 30.72 10.69 32.25 11.99C32.5 12.2 32.68 12.49 32.89 12.74C32.89 12.91 32.89 13.07 32.89 13.24C32.72 13.63 32.46 13.92 32.01 13.99C31.55 14.05 31.24 13.77 30.89 13.47C30.89 13.67 30.89 13.8 30.89 13.92C30.89 18.94 30.89 23.96 30.89 28.97C30.89 30.21 30.16 31.3 29.04 31.76C28.81 31.85 28.57 31.91 28.33 31.99C20.69 32 13.06 32 5.44 32ZM20.87 29.99C20.87 29.9 20.88 29.85 20.88 29.8C20.88 26.23 20.88 22.66 20.88 19.09C20.88 18.42 20.45 18 19.78 18C17.87 18 15.97 18 14.06 18C13.26 18 12.88 18.39 12.88 19.19C12.88 22.68 12.88 26.17 12.88 29.65C12.88 29.76 12.88 29.87 12.88 29.99C15.56 29.99 18.2 29.99 20.87 29.99Z" fill="#6C75B7"/>
</svg>
